<?xml version='1.0' encoding='utf-8'?>
<svg xmlns="http://www.w3.org/2000/svg" version="1.1" width="600px" height="976px" viewBox="0 0 600 976"> <g id="layer1"> <g style="fill:rgb(31,123,112); fill-opacity:1.0; stroke-linejoin: miter"> <path d="M309.49908,342.50595Q248.8428,339.52728,202.68277,378.96933Q157.65392,420.0617,153.00775,479.70816Q149.79922,540.3756,189.06535,586.66394Q229.69463,631.8308,290.20163,636.76624Q350.84875,639.9624,397.1478,600.68774Q442.8223,559.0044,447.2289,499.5371Q450.41394,438.884,411.12546,392.59448Q370.50604,347.4629,309.9737,342.53986"/> </g> <g style="fill:rgb(51,161,148); fill-opacity:1.0; stroke-linejoin: miter"> <path d="M306.5259,360.99628Q253.24799,359.1861,213.61275,394.1115Q174.63208,430.67255,171.37886,483.0136Q169.55516,536.4404,204.35414,575.95593Q240.76471,614.9392,293.1529,618.32227Q346.432,620.3036,386.1926,585.4828Q425.29138,549.0206,428.68958,496.68512Q430.658,443.26794,395.98932,403.66852Q360.00647,364.61163,306.76962,361.0086"/> </g> <g style="fill:rgb(108,65,28); fill-opacity:1.0; stroke-linejoin: miter"> <path d="M338.3212,366.7127Q338.63065,376.34564,343.40347,385.0329Q350.77866,400.51855,387.63763,440.00055L416.19086,433.95697L416.196,433.9572Q408.4647,417.91815,395.98932,403.66852Q371.23898,376.80377,338.32553,366.71295 Z"/> </g> <g style="fill:rgb(255,204,159); fill-opacity:1.0; stroke-linejoin: miter"> <path d="M348.77017,375.20374Q341.41843,374.7187,334.5076,379.92145Q325.5637,387.0255,322.39197,401.6139Q315.96268,432.5763,332.58606,477.33496Q347.84937,517.0873,359.0588,530.0436Q362.493,534.82056,369.32178,535.271Q375.32202,535.6669,383.94284,532.72266L391.43298,580.36035Q425.52643,545.3989,428.68958,496.68512Q429.94983,462.48584,416.1926,433.95013L416.19778,433.95044Q416.0181,433.9375,415.83774,433.9256Q411.53168,433.6416,406.75055,433.99445Q405.50012,433.912,404.5752,434.35077Q400.55942,436.5343,391.9462,437.50647Q394.6326,420.6632,391.26468,416.2376L379.58142,403.7459Q366.51996,385.33063,364.72607,383.99847Q359.76028,378.5434,354.67352,376.48413Q351.68713,375.39618,348.77017,375.20374 Z"/> </g> <g style="fill:rgb(255,73,0); fill-opacity:0.09411765; stroke-linejoin: miter"> <path d="M363.40012,431.13165Q362.77017,431.13416,362.14352,431.32562L362.0928,431.34167Q356.20413,433.8155,352.57587,446.2495Q349.76132,456.89465,352.62692,466.76923Q354.73294,473.60986,358.984,477.46692Q363.0672,481.49115,373.61093,484.94873L380.63446,492.73273Q384.6277,491.71246,383.33206,488.41858Q382.9665,487.3357,381.9294,485.65558Q375.36362,476.0279,374.4546,474.0412Q372.34564,470.09906,371.97867,467.3463Q371.67728,465.25708,372.03726,462.94934Q371.96857,462.59174,373.858,455.0537Q374.2387,453.17078,374.32806,451.4264Q374.54398,447.80334,373.21606,443.3399Q371.3098,437.25128,368.0977,433.69Q365.72684,431.12213,363.40012,431.13165 Z M344.39642,390.8244Q337.02133,391.08038,333.36075,405.253Q329.30106,421.6939,329.2642,448.92383Q329.65604,462.47803,333.53204,472.81158Q337.72522,484.29126,347.66315,499.0335L345.55298,487.3509Q338.8178,476.45807,336.58792,468.81653Q334.60916,462.51105,333.9753,454.92218Q333.10538,444.02454,334.9183,430.30756Q336.7999,416.9536,340.2169,409.09247Q343.60947,401.12494,348.1902,401.1062Q350.47885,401.09686,353.06415,403.07184Q357.0266,405.87952,362.31628,413.16565Q366.8355,419.2713,375.9802,434.51984Q363.0522,408.44366,356.9866,400.37836Q350.28278,390.89587,344.42093,390.8244L344.39642,390.8244 Z"/> </g> <g style="fill:rgb(182,167,167); fill-opacity:1.0; stroke-linejoin: miter"> <path d="M398.0931,535.32544L359.314,542.74084Q358.59036,542.9662,358.60373,543.7036Q358.70566,544.43823,359.48233,544.5387L359.69855,544.5194L398.32074,537.11646Q399.01596,536.88464,398.9998,536.14966Q398.86252,535.4099,398.1509,535.32715"/> </g> <g style="fill:rgb(255,0,0); fill-opacity:1.0; stroke-linejoin: miter"> <path d="M334.04517,547.1521L334.77313,550.59106L364.3817,544.61255L365.22412,544.43665L364.53107,541.004L364.49078,541.00464L334.07928,547.14514"/> </g> <g style="fill:rgb(182,167,167); fill-opacity:1.0; stroke-linejoin: miter"> <path d="M402.9981,490.2329L363.62106,487.35883Q362.86374,487.38922,362.68582,488.10498Q362.59415,488.84088,363.3184,489.13898L363.5322,489.17633L402.75443,492.02185Q403.48596,491.97778,403.66055,491.26367Q403.71942,490.51355,403.0535,490.2495"/> </g> <g style="fill:rgb(0,65,207); fill-opacity:1.0; stroke-linejoin: miter"> <path d="M297.37054,482.52838L297.2433,485.98285L368.86633,490.47125L369.10986,487.0319L297.42633,482.5319"/> </g> <g style="fill:rgb(182,167,167); fill-opacity:1.0; stroke-linejoin: miter"> <path d="M400.39194,509.8089L361.6128,517.22424Q360.8892,517.4497,360.90253,518.187Q361.00446,518.92163,361.7812,519.0221L361.99738,519.0028L400.61963,511.59995Q401.31476,511.368,401.29858,510.63303Q401.16132,509.89325,400.44974,509.8106"/> </g> <g style="fill:rgb(0,207,133); fill-opacity:1.0; stroke-linejoin: miter"> <path d="M336.34384,521.6355L337.0718,525.0746L366.68057,519.09595L367.52292,518.92004L366.82993,515.4874L366.78964,515.48804L336.378,521.62854"/> </g> <g style="fill:rgb(255,204,159); fill-opacity:1.0; stroke-linejoin: miter"> <path d="M258.7202,475.61212Q237.92268,475.61212,212.38135,480.71094Q196.46964,483.76837,171.30106,490.34033L171.30183,490.34033Q171.62386,514.1272,179.4742,535.05444L254.71687,519.0316L315.08093,525.0359Q332.52942,524.00415,339.81317,522.5016Q362.18262,518.5543,343.2696,503.28577L343.15393,503.19177Q317.98026,484.15942,282.6944,477.57367Q271.61978,475.61212,258.7202,475.61212 Z"/> </g> <g style="fill:rgb(255,204,159); fill-opacity:1.0; stroke-linejoin: miter"> <path d="M338.75354,523.62695Q337.3385,523.62695,335.7221,523.74536Q327.8913,524.1044,310.29407,527.6614L253.38625,548.8176L187.32704,552.006L187.32797,552.006Q194.31796,564.55945,204.35414,575.95593Q215.35422,587.73315,227.81258,596.2612Q266.18503,593.2671,290.90607,581.8699Q323.2793,566.6647,343.0346,541.6322L343.1692,541.4481Q356.1148,523.62695,338.75354,523.62695 Z"/> </g> <g style="fill:rgb(245,242,238); fill-opacity:1.0; stroke-linejoin: miter"> <path d="M320.53445,489.54724Q320.571,492.80878,321.0259,494.97266Q322.0987,500.76648,325.7356,504.4972Q332.2194,511.22665,351.82672,515.89966L351.82672,515.89966Q352.89993,511.0604,343.2696,503.28577L343.15393,503.19177Q332.71472,495.29932,320.53662,489.54724 Z"/> </g> <g style="fill:rgb(245,242,238); fill-opacity:1.0; stroke-linejoin: miter"> <path d="M346.91388,525.57153L344.4975,526.72485Q342.44113,527.79614,340.64728,529.0979Q336.7245,531.94653,334.16803,536.0183Q330.92743,541.2593,329.55826,548.8125Q328.79645,553.3976,329.14633,556.6033Q336.73248,549.6177,343.0346,541.6322L343.1692,541.4481Q351.83856,529.5137,346.91632,525.57153 Z"/> </g> </g> </svg>